<svg xmlns="http://www.w3.org/2000/svg" version="1.0" viewBox="0 0 62 62">
<path fill="#7805b1" stroke="#f3defe" stroke-width=".5" d="M20.5 31.2a8 8 8 00-8 8V61.7H7.7V39.2a8 9 0 014-8H4.9c-2.3 0-3.8-1-4.4-3-.5-1.5-.1-4.4 1-7.6C3 15.8 6.6 10.9 10.8 7.8A33.1 33.1 0 0130.1 1 34 34 0 0149.4 6.7a27.7 27.7 0 0111.2 15c.5 2 .6 3 .6 4.8 0 .5.1 1.9-.7 3-.2.3-.8 1-1.6 1.4-.5.2-1 .2-1.8.3h-7.2a8 9 0 014 8v22.5h-4.8V39.2a8 8 0 00-8-8Zm36.2-4.8a21.6 21.6 0 00-1.9-6.9 7.3 7.3 0 01-8.2.9 8 8 0 01-4.3-7.9 8 8 0 011.4-3.8 27.8 27.8 0 00-25.6 0c.5 2.3.6 5.8-2.4 8.9C13 20 9.8 20.4 7.2 19.2c-.5 1.1-1.5 3.4-2 7.2ZM46 10c-1.8 2.7-1.4 5.6.5 7.4a5 5 0 006.8-.2A27.4 27.4 0 0046 10ZM15.8 10A18 18 0 008.4 17.1c1.5 1 4.1.8 5.8-.9A6 6 0 0015.8 10ZM29 11.2a1 1 0 000 12.9 1 1 0 000-12.9Zm0 2.5a1 1 0 010 8 1 1 0 010-8Zm-7.8 48V41.4c.5-2.3 4.1-2.4 4.5 0v20.3Zm14.6 0v-20c.5-2.3 4.1-2.4 4.5 0v20Z"/>
</svg>
